<?xml version="1.0" standalone="no"?>
<!DOCTYPE svg PUBLIC "-//W3C//DTD SVG 1.1//EN" "http://www.w3.org/Graphics/SVG/1.1/DTD/svg11.dtd" >
<svg xmlns="http://www.w3.org/2000/svg">
<metadata>
This is a custom SVG webfont generated by Font Squirrel.
Copyright   : Copyright c 2011 Denis Masharov denismasharovgmailcom with Reserved Font Names Kelly Kelly Slab
Designer    : Denis Masharov
Foundry     : Denis Masharov
Foundry URL : denismasharovgmailcom
</metadata>
<defs>
<font id="KellySlabRegular" horiz-adv-x="1110" >
<font-face units-per-em="2048" ascent="1638" descent="-410" />
<missing-glyph horiz-adv-x="716" />
<glyph unicode=" "  horiz-adv-x="716" />
<glyph unicode="&#x09;" horiz-adv-x="716" />
<glyph unicode="&#xa0;" horiz-adv-x="716" />
<glyph unicode="!" horiz-adv-x="616" d="M205 96q0 41 31.5 74t72.5 33q43 0 73 -32t30 -75q0 -45 -30 -74.5t-75 -29.5q-41 0 -71.5 30.5t-30.5 73.5zM223 395v1094h168v-1094h-168z" />
<glyph unicode="&#x22;" horiz-adv-x="667" d="M82 1044v492h168v-492h-168zM418 1044v492h168v-492h-168z" />
<glyph unicode="#" horiz-adv-x="1570" d="M41 508l41 149h346l53 209h-344l41 158h344l131 512h160l-131 -512h268l131 512h164l-129 -512h414l-41 -158h-414l-55 -209h412l-37 -149h-416l-129 -508h-166l131 508h-266l-133 -508h-162l137 508h-350zM586 657h268l55 209h-264z" />
<glyph unicode="$" horiz-adv-x="1191" d="M164 0v379h147v-240h213v609l-196 120q-82 45 -123 90.5t-41 114.5v258q0 121 53 163t174 42h133v307h144v-307h342v-379h-148v240h-194v-541l168 -104q20 -14 60 -40t56.5 -39.5t38 -35t29.5 -46t8 -56.5v-349q0 -92 -61.5 -139t-149.5 -47h-149v-307h-144v307h-360z M328 1069l196 -123v451h-196v-328zM668 139h196v400l-196 120v-520z" />
<glyph unicode="%" horiz-adv-x="1689" d="M123 874v441q0 141 49 189t184 48h74q160 0 205 -51t45 -211v-391q0 -158 -40 -208t-189 -50h-82q-147 0 -196.5 44t-49.5 189zM270 772h267v645h-267v-645zM406 -309l681 2091h158l-680 -2091h-159zM1006 236v442q0 133 51 181t184 48h70q162 0 209 -51t47 -211v-393 q0 -154 -41 -203t-195 -49h-78q-147 0 -197 45t-50 191zM1155 135h266v645h-266v-645z" />
<glyph unicode="&#x26;" horiz-adv-x="1486" d="M123 287v274l397 340l-188 225v166q0 147 39 201.5t184 54.5h133q174 0 217 -54t43 -234v-189l-221 -178l174 -209l244 201l98 -111l-246 -203l408 -489l-113 -94l-295 342v-76q0 -143 -45 -199.5t-192 -56.5h-391q-74 0 -119 10t-71.5 24.5t-38 56.5t-14.5 79t-3 119z M260 283q0 -94 21.5 -120t109.5 -26h346q84 0 101.5 21.5t17.5 105.5v234l-246 301l-350 -312v-204zM473 1169l164 -165l174 141v119q0 96 -18.5 120.5t-104.5 24.5h-88q-86 0 -106.5 -22.5t-20.5 -104.5v-113z" />
<glyph unicode="'" horiz-adv-x="413" d="M123 1047v489h168v-489h-168z" />
<glyph unicode="(" horiz-adv-x="559" d="M164 250v1040q0 492 375 492v-105q-115 0 -173.5 -103.5t-58.5 -287.5v-1026q0 -209 57.5 -340t174.5 -131v-98q-375 0 -375 559z" />
<glyph unicode=")" horiz-adv-x="559" d="M20 -205q115 0 173.5 103.5t58.5 287.5v1026q0 209 -57.5 340t-174.5 131v99q375 0 375 -559v-1041q0 -492 -375 -491v104z" />
<glyph unicode="*" horiz-adv-x="833" d="M82 1102l207 110l-203 123l55 105l215 -123v242h119v-242l217 119l60 -103l-215 -121l211 -120l-60 -103l-213 113v-244h-119v246l-215 -117z" />
<glyph unicode="+" horiz-adv-x="1236" d="M164 725v135h383v387h143v-387h383v-135h-383v-383h-143v383h-383z" />
<glyph unicode="," horiz-adv-x="473" d="M41 -307l158 508h151l-160 -508h-149z" />
<glyph unicode="-" horiz-adv-x="923" d="M164 725v135h596v-135h-596z" />
<glyph unicode="." horiz-adv-x="452" d="M123 96q0 41 31.5 74t72.5 33q43 0 73 -32t30 -75q0 -45 -30 -74.5t-75 -29.5q-41 0 -71.5 30.5t-30.5 73.5z" />
<glyph unicode="/" horiz-adv-x="858" d="M10 -307l680 2089h158l-678 -2089h-160z" />
<glyph unicode="0" horiz-adv-x="1069" d="M123 248v1016q0 139 48 205.5t179 66.5h359q238 0 237 -272v-985q0 -150 -50 -214.5t-177 -64.5h-352q-133 0 -188.5 63.5t-55.5 184.5zM287 139h495v1258h-495v-1258z" />
<glyph unicode="1" horiz-adv-x="716" d="M61 1395v141h177q100 0 144 -44t44 -132v-1221h127v-139h-434v139h139v1256h-197z" />
<glyph unicode="2" horiz-adv-x="1075" d="M102 0v371q0 170 111 237l590 367v422h-539v-250h-160v389h596q152 0 211.5 -51t59.5 -187v-239q0 -141 -101 -203l-608 -385v-332h539v189h172v-328h-871z" />
<glyph unicode="3" horiz-adv-x="1052" d="M102 281v108h150v-262h530v637h-530v133l508 500h-508v-144h-150v283h848v-139l-501 -500h264q135 0 185 -53t50 -187v-383q0 -152 -52 -213t-230 -61h-312q-84 0 -137 20.5t-76.5 64.5t-31 86t-7.5 110z" />
<glyph unicode="4" horiz-adv-x="1062" d="M20 395l648 1141h166v-1001h147v-140h-147v-256h147v-139h-537v139h226v256h-650zM272 535h398v696z" />
<glyph unicode="5" horiz-adv-x="1060" d="M102 246v143h160v-250h531v658h-668v739h772v-139h-612v-461h481q117 0 154.5 -47t37.5 -152v-489q0 -117 -49 -182.5t-194 -65.5h-381q-137 0 -184.5 62.5t-47.5 183.5z" />
<glyph unicode="6" horiz-adv-x="1075" d="M102 254v1038q0 109 60.5 176.5t185.5 67.5h377q207 0 207 -240v-45h-139v156h-523v-500h447q141 0 198.5 -59.5t57.5 -171.5v-416q0 -135 -68.5 -197.5t-220.5 -62.5h-301q-156 0 -218.5 59.5t-62.5 194.5zM270 139h535v627h-535v-627z" />
<glyph unicode="7" horiz-adv-x="931" d="M61 0l701 1397h-553v-305h-148v444h850v-209l-663 -1327h-187z" />
<glyph unicode="8" horiz-adv-x="1075" d="M102 274v342q0 98 56.5 158t111.5 64q-47 4 -87 60t-40 130v264q0 244 236 244h321q119 0 175.5 -67.5t56.5 -176.5v-264q0 -78 -37 -132t-86 -58q57 -4 110.5 -62.5t53.5 -152.5v-349q0 -274 -289 -274h-301q-154 0 -217.5 67.5t-63.5 206.5zM270 139h535v615h-535v-615 zM301 907h473v500h-473v-500z" />
<glyph unicode="9" horiz-adv-x="1075" d="M102 240v45h168v-152h535v563h-447q-141 0 -198.5 59.5t-57.5 172.5v348q0 135 69 197.5t220 62.5h301q156 0 218.5 -59.5t62.5 -194.5v-1038q0 -109 -60.5 -176.5t-185.5 -67.5h-389q-119 0 -177.5 66.5t-58.5 173.5zM270 838h535v559h-535v-559z" />
<glyph unicode=":" horiz-adv-x="452" d="M123 96q0 41 31.5 74t72.5 33q43 0 73 -32t30 -75q0 -45 -30 -74.5t-75 -29.5q-41 0 -71.5 30.5t-30.5 73.5zM123 831q0 43 31.5 75t72.5 32q43 0 73 -32t30 -75q0 -45 -30 -75.5t-75 -30.5q-41 0 -71.5 30.5t-30.5 75.5z" />
<glyph unicode=";" horiz-adv-x="495" d="M41 -307l158 508h151l-160 -508h-149zM162 831q0 43 31.5 75t72.5 32q43 0 75 -32t32 -75q0 -45 -32 -75.5t-77 -30.5q-41 0 -71.5 30.5t-30.5 75.5z" />
<glyph unicode="&#x3c;" horiz-adv-x="1107" d="M123 698v156l924 444v-141l-775 -381l775 -383v-141z" />
<glyph unicode="=" horiz-adv-x="1155" d="M164 561v131h827v-131h-827zM164 874v134h827v-134h-827z" />
<glyph unicode="&#x3e;" horiz-adv-x="1107" d="M61 252v141l775 383q-109 53 -372 183.5t-403 197.5v141q182 -86 517 -247.5t407 -196.5v-156z" />
<glyph unicode="?" horiz-adv-x="985" d="M41 1163v373h551q119 0 174 -48t55 -171v-395q0 -209 -192 -209h-264v-316h-164v277q0 94 47 137t147 43h250v543h-455v-234h-149zM178 96q0 43 31 75t74 32t73.5 -32t30.5 -75q0 -45 -30.5 -74.5t-75.5 -29.5q-43 0 -73 30.5t-30 73.5z" />
<glyph unicode="A" horiz-adv-x="1312" d="M51 0v139h129l357 1397h241l350 -1397h134v-139h-400v139h111l-103 408h-430l-102 -408h113v-139h-400zM473 676h365l-183 721z" />
<glyph unicode="B" horiz-adv-x="1140" d="M123 0v139h129v1260h-127v137h428q209 0 209 -182v-379l8 6q45 27 100 27q61 0 104.5 -46.5t43.5 -130.5v-651q0 -84 -39 -132t-143 -48h-713zM420 141h434v727l-434 -272v-455zM420 760l176 110v529h-176v-639z" />
<glyph unicode="C" horiz-adv-x="1075" d="M123 219v1096q0 92 47 156.5t154 64.5h649v-379h-139v240h-543v-1258h543v240h139v-379h-629q-221 0 -221 219z" />
<glyph unicode="D" horiz-adv-x="1236" d="M123 0v139h129v1258h-129v139h723q147 0 207.5 -64.5t60.5 -203.5v-1000q0 -139 -65.5 -203.5t-202.5 -64.5h-723zM420 139h526v1258h-526v-1258z" />
<glyph unicode="E" horiz-adv-x="1196" d="M133 0v139h129v1258h-129v139h961v-379h-140v240h-524v-533h289v146h139v-430h-139v145h-289v-586h524v240h140v-379h-961z" />
<glyph unicode="F" horiz-adv-x="1196" d="M133 0v139h129v1258h-129v139h961v-379h-140v240h-524v-533h289v146h139v-430h-139v145h-289v-586h133v-139h-430z" />
<glyph unicode="G" d="M123 254v1046q0 236 219 236h645v-379h-164v240h-532v-1258h532v479l-284 -178v150l448 280v-870h-608q-145 0 -200.5 54.5t-55.5 199.5z" />
<glyph unicode="H" horiz-adv-x="1429" d="M133 0v139h129v1258h-129v139h422v-139h-125v-535h569v535h-125v139h422v-139h-129v-1258h129v-139h-422v139h125v586h-569v-586h125v-139h-422z" />
<glyph unicode="I" horiz-adv-x="757" d="M164 0v139h129v1258h-129v139h430v-139h-133v-1258h133v-139h-430z" />
<glyph unicode="J" horiz-adv-x="831" d="M41 0v139h356v1258h-131v139h432v-139h-133v-1157q0 -98 -51 -169t-168 -71h-305z" />
<glyph unicode="K" horiz-adv-x="1239" d="M133 0v139h129v1258h-129v139h430v-139h-141v-572l522 711h221v-139h-137l-426 -598l445 -660h131v-139h-234l-514 764v-625h133v-139h-430z" />
<glyph unicode="L" horiz-adv-x="1081" d="M133 0v139h129v1258h-129v139h430v-139h-133v-1258h430v240h139v-379h-866z" />
<glyph unicode="M" horiz-adv-x="1761" d="M133 0v139h129v1258h-129v139h316l434 -895l430 895h315v-139h-129v-1258h129v-139h-430v139h133v1055l-387 -797h-129l-385 803v-1061h133v-139h-430z" />
<glyph unicode="N" horiz-adv-x="1472" d="M133 0v139h129v1258h-129v139h316l593 -1221v1082h-133v139h430v-139h-129v-1397h-200l-580 1196v-1057h133v-139h-430z" />
<glyph unicode="O" d="M123 248v1016q0 139 48 205.5t179 66.5h400q238 0 237 -272v-985q0 -150 -50 -214.5t-177 -64.5h-393q-133 0 -188.5 63.5t-55.5 184.5zM287 139h536v1258h-536v-1258z" />
<glyph unicode="P" horiz-adv-x="1216" d="M133 0v139h129v1256h-129v141h731q135 0 182.5 -51t47.5 -203v-149q0 -33 -4.5 -58.5t-7.5 -44t-17 -37t-19.5 -29t-31 -28.5t-33.5 -23.5t-46 -29t-52 -31.5l-453 -283v-430h133v-139h-430zM430 733l514 318v344h-514v-662z" />
<glyph unicode="Q" d="M123 248v1016q0 139 48 205.5t179 66.5h400q238 0 237 -272v-985q0 -150 -50 -214.5t-177 -64.5h-123v-123h-164v123h-106q-133 0 -188.5 63.5t-55.5 184.5zM287 139h186v103h164v-103h186v1258h-536v-1258z" />
<glyph unicode="R" horiz-adv-x="1323" d="M133 0v139h129v1258h-129v139h731q135 0 182.5 -52t47.5 -204v-127q0 -39 -4.5 -68.5t-9.5 -53t-22.5 -46t-28.5 -36t-45 -36t-53.5 -35t-71.5 -44t-85 -52.5l404 -643h114v-139h-405v139h110l-350 563l-217 -133v-430h133v-139h-430zM430 733l514 318v346h-514v-664z " />
<glyph unicode="S" d="M123 0v379h147v-240h553v400l-536 329q-82 45 -123 90.5t-41 114.5v258q0 121 53 163t174 42h619v-379h-148v240h-534v-328l508 -317q20 -14 60 -40t56.5 -39.5t38 -35t29.5 -46t8 -56.5v-349q0 -92 -61.5 -139t-149.5 -47h-653z" />
<glyph unicode="T" horiz-adv-x="1083" d="M51 1155v381h981v-381h-149v242h-258v-1258h133v-139h-430v139h129v1258h-258v-242h-148z" />
<glyph unicode="U" horiz-adv-x="1396" d="M123 1397v139h430v-139h-133v-1258h557v1258h-133v139h430v-139h-129v-1184q0 -213 -184 -213h-527q-182 0 -182 203v1194h-129z" />
<glyph unicode="V" horiz-adv-x="1310" d="M51 1397v139h375v-139h-107l338 -1258l336 1258h-129v139h396v-139h-111l-375 -1397h-235l-373 1397h-115z" />
<glyph unicode="W" horiz-adv-x="1712" d="M51 1397v139h338v-139h-82l195 -1258l215 1397h278l215 -1397l195 1258h-82v139h338v-139h-98l-220 -1397h-266l-221 1395l-221 -1395h-266l-219 1397h-99z" />
<glyph unicode="X" horiz-adv-x="1208" d="M51 0v139h117l350 668l-309 590h-123v139h225l293 -565l297 565h221v-139h-121l-311 -590l354 -668h113v-139h-213l-338 639l-338 -639h-217z" />
<glyph unicode="Y" horiz-adv-x="1138" d="M51 1397v139h332v-139h-74l260 -500l267 500h-74v139h325v-139h-77l-359 -641v-617h133v-139h-430v139h129v617l-340 641h-92z" />
<glyph unicode="Z" horiz-adv-x="1067" d="M61 0v147l773 1250h-572v-230h-145v369h889v-147l-768 -1250h604v234h143v-373h-924z" />
<glyph unicode="[" horiz-adv-x="530" d="M164 -172v1819q0 72 36 103.5t111 31.5h209v-101h-213v-1884h213v-102h-209q-76 0 -111.5 30.5t-35.5 102.5z" />
<glyph unicode="\" horiz-adv-x="858" d="M10 1782h160l678 -2089h-158z" />
<glyph unicode="]" horiz-adv-x="530" d="M10 -205h213v1884h-213v103h209q76 0 112 -31t36 -102v-1819q0 -72 -36 -103.5t-112 -31.5h-209v100z" />
<glyph unicode="^" horiz-adv-x="1220" d="M164 768l393 768h127l373 -768h-142l-299 623l-309 -623h-143z" />
<glyph unicode="_" d="M10 -147h1090v-82h-1090v82z" />
<glyph unicode="`" horiz-adv-x="372" d="M2 1397h145l220 -252h-150z" />
<glyph unicode="a" horiz-adv-x="1009" d="M41 180v76q0 74 23.5 106.5t115.5 90.5l451 280v152h-402v-119h-131v258h512q100 0 144.5 -44t44.5 -132v-709h129v-139h-713q-104 0 -139 39t-35 141zM205 139h426v430l-426 -266v-164z" />
<glyph unicode="b" horiz-adv-x="1079" d="M82 0v139h129v1258h-129v139h297v-739l348 219q44 28 98 28h4q66 0 107 -47t41 -129v-688q0 -180 -176 -180h-719zM379 139h434v766l-434 -272v-494z" />
<glyph unicode="c" horiz-adv-x="872" d="M102 180v664q0 182 195 182h494v-260h-140v119h-385v-746h385v119h140v-258h-510q-178 0 -179 180z" />
<glyph unicode="d" horiz-adv-x="1079" d="M102 115v716q0 94 39 143.5t146 49.5h413v373h-135v139h303v-1395h129v-141h-297v236l-354 -224q-61 -32 -110 -32h-3q-61 0 -96 38.5t-35 96.5zM266 129l434 270v486h-434v-756z" />
<glyph unicode="e" horiz-adv-x="952" d="M102 150v673q0 203 211 203h346q102 0 146.5 -41t44.5 -141v-191l-584 -368v-146h422v119h162v-108q0 -66 -41 -108t-123 -42h-420q-82 0 -123 42t-41 108zM266 451l420 264v170h-420v-434z" />
<glyph unicode="f" horiz-adv-x="679" d="M82 0v139h164v738h-164v147h164v299q0 113 44 163t138 50h170v-139h-192v-373h165v-147h-165v-738h165v-139h-489z" />
<glyph unicode="g" horiz-adv-x="1071" d="M102 125v719q0 100 36 140t138 40h713v-139h-129v-1157q0 -88 -44 -132.5t-144 -44.5h-496v279h139v-137h377v534l-350 -221q-43 -26 -89 -26h-3q-61 0 -104.5 41.5t-43.5 103.5zM262 123l430 270v492h-430v-762z" />
<glyph unicode="h" horiz-adv-x="1163" d="M82 0v139h129v1258h-129v139h295v-729l340 213q37 24 82 24h4q61 0 104 -43t43 -118v-744h131v-139h-395v139h98v758l-407 -256v-502h100v-139h-395z" />
<glyph unicode="i" horiz-adv-x="614" d="M102 0v139h129v746h-129v139h297v-885h133v-139h-430zM211 1296q0 41 30.5 73t71.5 32q43 0 74 -31t31 -74q0 -47 -31 -76.5t-76 -29.5q-41 0 -70.5 30.5t-29.5 75.5z" />
<glyph unicode="j" horiz-adv-x="540" d="M-20 -268h270v1153h-129v139h297v-1257q0 -88 -44 -132.5t-145 -44.5h-249v142zM211 1296q0 41 30.5 73t71.5 32q43 0 74 -31t31 -74q0 -47 -31 -76.5t-76 -29.5q-41 0 -70.5 30.5t-29.5 75.5z" />
<glyph unicode="k" horiz-adv-x="1038" d="M82 0v139h131v1258h-131v139h287v-971l467 459h159v-139h-112l-334 -342l342 -404h106v-139h-176l-444 516v-377h123v-139h-418z" />
<glyph unicode="l" horiz-adv-x="634" d="M102 0v139h129v1258h-129v139h297v-1397h133v-139h-430z" />
<glyph unicode="m" horiz-adv-x="1673" d="M82 0v139h129v748h-129v137h295v-195l309 195q33 20 74 20q160 0 160 -157v-56l307 193q33 20 73 20q160 0 160 -157v-748h131v-139h-395v139h98v762l-374 -233v-529h100v-139h-367v139h99l2 8v756l-377 -235v-529h100v-139h-395z" />
<glyph unicode="n" horiz-adv-x="1163" d="M82 0v139h129v748h-129v137h295v-213l340 213q33 20 74 20q160 0 159 -157v-748h131v-139h-395v139h98v762l-407 -256v-506h100v-139h-395z" />
<glyph unicode="o" horiz-adv-x="923" d="M82 182v660q0 90 41 136t149 46h379q106 0 148.5 -47t42.5 -135v-660q-1 -182 -191 -182h-379q-190 0 -190 182zM248 139h428v746h-428v-746z" />
<glyph unicode="p" horiz-adv-x="1079" d="M82 883v141h297v-233l354 223q47 30 100 30h3q59 0 100 -35.5t41 -97.5v-718q0 -94 -39 -143.5t-145 -49.5h-414v-373h135v-139h-430v139h127v1256h-129zM379 139h434v760l-434 -272v-488z" />
<glyph unicode="q" horiz-adv-x="1099" d="M102 156v688q0 180 177 180h718v-139h-129v-1258h129v-139h-426v139h129v600l-348 -219q-44 -28 -98 -28h-4q-66 0 -107 47t-41 129zM266 119l434 274v492h-434v-766z" />
<glyph unicode="r" horiz-adv-x="944" d="M82 0v139h129v748h-129v139h295v-180l252 158q33 20 73 20q160 0 160 -158v-182h-166v199l-319 -203v-541h100v-139h-395z" />
<glyph unicode="s" horiz-adv-x="899" d="M102 725v117q0 86 42 134t151 48h477v-307h-139v168h-369v-172l348 -217q14 -10 44 -27.5t42.5 -25t33 -21.5t28.5 -24.5t19.5 -25t14.5 -30.5t3 -35v-127q0 -180 -176 -180h-496v309h139v-170h369v170l-336 211q-27 16 -72 43t-58 37t-33.5 30.5t-26 41t-5.5 53.5z" />
<glyph unicode="t" horiz-adv-x="649" d="M82 877v147h151v373h160v-373h166v-147h-166v-738h195v-139h-172q-94 0 -138.5 50t-44.5 163v664h-151z" />
<glyph unicode="u" horiz-adv-x="1163" d="M82 887v139h297v-887l407 256v492h-100v139h266v-887h129v-139h-295v229l-340 -213q-33 -20 -73 -20q-160 0 -160 158v733h-131z" />
<glyph unicode="v" horiz-adv-x="1050" d="M41 885v139h377v-139h-101l205 -746l209 746h-100v139h379v-139h-123l-248 -885h-227l-250 885h-121z" />
<glyph unicode="w" horiz-adv-x="1499" d="M41 885v139h326v-139h-91l166 -744l191 883h225l197 -887l168 748h-93v139h328v-139h-98l-195 -885h-219l-194 887l-199 -887h-229q0 4 -96.5 445.5t-98.5 439.5h-88z" />
<glyph unicode="x" horiz-adv-x="1040" d="M61 0v139h115l258 391l-235 355h-121v139h196l250 -369l234 369h200v-139h-114l-236 -355l256 -391h115v-139h-193l-262 408l-260 -408h-203z" />
<glyph unicode="y" horiz-adv-x="1054" d="M82 885v139h297v-883l407 256v488h-100v139h266v-1296q0 -88 -44 -132.5t-144 -44.5h-473v279h139v-137h354v538l-360 -223q-45 -28 -91 -28h-3q-51 0 -84 33.5t-33 99.5v772h-131z" />
<glyph unicode="z" horiz-adv-x="925" d="M82 0v141l567 744h-416v-146h-141v285h735v-145l-563 -740h436v142h144v-281h-762z" />
<glyph unicode="{" horiz-adv-x="673" d="M102 698v82q190 80 191 291v293q0 92 5 149.5t25.5 116t59.5 89t105.5 50t164.5 19.5v-84q-61 0 -103 -20.5t-64.5 -51t-35 -86t-15.5 -102.5t-3 -125v-248q0 -246 -211 -332q211 -86 211 -331v-248q0 -78 3 -125t15.5 -102.5t35 -86t64.5 -51t103 -20.5v-84 q-98 0 -164.5 19.5t-105.5 50t-59.5 89t-25.5 116t-5 149.5v293q0 211 -191 290z" />
<glyph unicode="|" horiz-adv-x="552" d="M205 -309v2093h143v-2093h-143z" />
<glyph unicode="}" horiz-adv-x="673" d="M20 -225q61 0 103.5 20.5t65 51t35 86t15.5 102.5t3 125v248q0 246 211 331q-211 86 -211 332v248q0 78 -3 125t-15.5 102.5t-35 86t-64.5 51t-104 20.5v84q98 0 165 -19.5t106 -50t59.5 -89t25.5 -116t5 -149.5v-293q0 -211 190 -291v-82q-190 -80 -190 -290v-293 q0 -92 -5 -149.5t-25.5 -116t-59.5 -89t-105.5 -50t-165.5 -19.5v84z" />
<glyph unicode="~" horiz-adv-x="1218" d="M82 588q145 201 291 200q96 0 263 -80.5t206 -80.5q104 0 215 133l80 -74q-156 -188 -293 -188q-61 0 -235.5 78.5t-231.5 78.5q-61 0 -100 -28.5t-103 -108.5z" />
<glyph unicode="&#xa1;" horiz-adv-x="616" d="M205 1384q0 43 30.5 74t71.5 31q45 0 75 -30t30 -75q0 -43 -30 -74.5t-73 -31.5q-41 0 -72.5 32.5t-31.5 73.5zM223 -8v1093h168v-1093h-168z" />
<glyph unicode="&#xa2;" horiz-adv-x="925" d="M102 180v664q0 182 195 182h133v174h121v-174h274v-260h-139v119h-135v-746h135v119h139v-258h-274v-240h-121v240h-149q-178 0 -179 180zM266 139h164v746h-164v-746z" />
<glyph unicode="&#xa3;" horiz-adv-x="1087" d="M68 0v139h178v738h-178v147h178v299q0 113 44 163t138 50h250v-139h-272v-373h245v-147h-245v-738h436v240h139v-379h-913z" />
<glyph unicode="&#xa4;" horiz-adv-x="991" d="M55 256l101 100q-98 113 -95 269q0 168 95 270l-30 29l-38 40q-22 21 -33 31l76 76l98 -100q123 96 273 96q147 0 274 -96l98 100l76 -74l-102 -102q94 -102 94 -270q0 -162 -94 -269l102 -102l-76 -74l-98 103q-111 -98 -276 -99q-162 0 -271 97l-98 -101zM201 625 q0 -129 88 -221.5t213 -92.5q129 0 216 92.5t87 221.5q0 127 -88 219t-215 92q-125 0 -213 -91t-88 -220z" />
<glyph unicode="&#xa5;" horiz-adv-x="1138" d="M51 1397v139h332v-139h-74l260 -500l267 500h-74v139h325v-139h-77l-283 -506h256v-135h-332v-181h332v-131h-332v-305h133v-139h-430v139h129v305h-327v131h329v183h-329v133h256l-269 506h-92z" />
<glyph unicode="&#xa6;" horiz-adv-x="530" d="M205 -307v741h141v-741h-141zM205 797v739h141v-739h-141z" />
<glyph unicode="&#xa7;" horiz-adv-x="1150" d="M123 618v246q0 63 3 98t16.5 72t43 53.5t78.5 18.5q-72 2 -93 41t-21 113v182q0 88 14 137t57 70.5t82 25.5t131 4h285q96 0 150.5 -9t83 -38.5t35.5 -68.5t7 -115v-135h-149v223h-535v-360h443q174 0 224 -44.5t50 -209.5v-240q0 -63 -4 -99t-16.5 -72t-42 -52.5 t-78.5 -18.5q53 -2 79.5 -38.5t30.5 -73.5t4 -107v-127q0 -88 -14 -137t-57 -70.5t-82 -25.5t-131 -4h-285q-96 0 -150.5 9t-83 38.5t-35.5 68.5t-7 115v135h149v-223h535v365h-443q-174 0 -224 44t-50 209zM289 516h577v508h-577v-508z" />
<glyph unicode="&#xa8;" horiz-adv-x="481" d="M2 1233q0 35 26.5 62.5t61.5 27.5q37 0 62.5 -26.5t25.5 -63.5q0 -39 -25.5 -64.5t-64.5 -25.5q-35 0 -60.5 26.5t-25.5 63.5zM305 1233q0 35 26.5 62.5t61.5 27.5q37 0 62.5 -26.5t25.5 -63.5q0 -39 -25.5 -64.5t-64.5 -25.5q-35 0 -60.5 26.5t-25.5 63.5z" />
<glyph unicode="&#xa9;" horiz-adv-x="1814" d="M113 764q0 326 232.5 558t559.5 232q324 0 555.5 -232t231.5 -558q0 -328 -231.5 -557.5t-557.5 -229.5q-328 0 -559 229.5t-231 557.5zM248 764q0 -268 191.5 -459.5t463.5 -191.5q268 0 458.5 190.5t190.5 458.5t-190.5 460.5t-458.5 192.5q-272 0 -463.5 -191.5 t-191.5 -459.5zM541 444v627q0 172 184 172h467v-246h-133v113h-363v-704h363v112h133v-244h-483q-168 0 -168 170z" />
<glyph unicode="&#xaa;" horiz-adv-x="692" d="M45 989v47q0 47 20.5 75t75.5 63l285 176v71h-244v-96h-108v211h352q133 0 133 -125v-436h113v-115h-502q-74 0 -99.5 29t-25.5 100zM176 975h250v242l-250 -154v-88z" />
<glyph unicode="&#xab;" horiz-adv-x="907" d="M61 553l316 434l117 -82l-261 -352l261 -320l-113 -83zM455 553l315 434l117 -82l-260 -352l260 -320l-113 -83z" />
<glyph unicode="&#xac;" horiz-adv-x="1329" d="M88 725v137h1071v-692h-149v555h-922z" />
<glyph unicode="&#xad;" horiz-adv-x="770" d="M106 487v129h560v-129h-560z" />
<glyph unicode="&#xae;" horiz-adv-x="1841" d="M113 764q0 326 232.5 558t559.5 232q324 0 555.5 -232t231.5 -558q0 -328 -231.5 -557.5t-557.5 -229.5q-328 0 -559 229.5t-231 557.5zM248 764q0 -268 191.5 -459.5t463.5 -191.5q268 0 458.5 190.5t190.5 458.5t-190.5 460.5t-458.5 192.5q-272 0 -463.5 -191.5 t-191.5 -459.5zM528 305v123h115v668h-115v131h570q76 0 125 -36t49 -108v-108q0 -49 -20.5 -86t-42 -54.5t-62.5 -41.5l-88 -56l82 -309h143v-123h-102q-78 0 -121 39t-68 125l-51 190l-154 -94v-137h103v-123h-363zM788 700l347 222v174h-347v-396z" />
<glyph unicode="&#xaf;" horiz-adv-x="522" d="M0 1178v129h522v-129h-522z" />
<glyph unicode="&#xb0;" horiz-adv-x="770" d="M76 1327q0 131 92 222t225 91q127 0 219.5 -92t92.5 -223t-92.5 -222t-221.5 -91q-131 0 -223 93t-92 222zM184 1329q0 -84 60.5 -145.5t146.5 -61.5q84 0 144.5 60.5t60.5 144.5q0 86 -60.5 146.5t-142.5 60.5q-88 0 -148.5 -60.5t-60.5 -144.5z" />
<glyph unicode="&#xb1;" horiz-adv-x="1236" d="M164 248v135h909v-135h-909zM164 860v135h383v348h143v-348h383v-135h-383v-342h-143v342h-383z" />
<glyph unicode="&#xb2;" horiz-adv-x="595" d="M90 860v164q0 78 57 115l273 149v160h-225v-107h-103v195h295q80 0 110.5 -24.5t30.5 -90.5v-104q0 -66 -55 -96q-18 -10 -120.5 -70.5t-159.5 -91.5v-113h227v80h108v-166h-438z" />
<glyph unicode="&#xb3;" horiz-adv-x="606" d="M90 993v62h100v-115h228v238h-256v77l223 193h-195v-62h-100v150h438v-80l-219 -192h90q72 0 99.5 -27t27.5 -90v-156q0 -72 -27.5 -101.5t-121.5 -29.5h-152q-59 0 -91 19.5t-38 44t-6 69.5z" />
<glyph unicode="&#xb4;" horiz-adv-x="372" d="M2 1145l219 252h146l-215 -252h-150z" />
<glyph unicode="&#xb6;" d="M53 1210q0 328 424 328h494v-1745h-140v1641h-237v-1641h-141l2 1096q-182 0 -292 89t-110 232z" />
<glyph unicode="&#xb7;" horiz-adv-x="452" d="M123 541q0 41 31.5 73.5t72.5 32.5q43 0 73 -31.5t30 -74.5q0 -45 -30 -75t-75 -30q-41 0 -71.5 31t-30.5 74z" />
<glyph unicode="&#xb8;" horiz-adv-x="348" d="M0 4h121v-90h76q152 0 151 -143v-76q0 -139 -139 -139h-209v108h221v137h-221v203z" />
<glyph unicode="&#xb9;" horiz-adv-x="348" d="M8 1440v96h135q92 0 93 -84v-498h88v-94h-291v94h94v486h-119z" />
<glyph unicode="&#xba;" horiz-adv-x="630" d="M47 1096v211q0 137 42 183t171 46h94q160 0 198 -48t38 -214v-162q0 -59 -1 -88t-8.5 -63.5t-19.5 -49t-36.5 -29t-60.5 -18.5t-89 -4h-103q-143 0 -184 43t-41 193zM150 952h337v492h-337v-492z" />
<glyph unicode="&#xbb;" horiz-adv-x="907" d="M20 231l261 353l-261 319l113 84l320 -403l-316 -434zM414 231l260 353l-260 319l112 84l320 -403l-316 -434z" />
<glyph unicode="&#xbf;" horiz-adv-x="985" d="M41 211v395q0 209 192 209h265v315h164v-276q0 -94 -47.5 -137t-147.5 -43h-250v-543h455v234h149v-373h-551q-119 0 -174 48t-55 171zM475 1432q0 45 31 74.5t76 29.5q41 0 71.5 -30.5t30.5 -73.5t-30.5 -75t-73.5 -32t-74 32t-31 75z" />
<glyph unicode="&#xc0;" horiz-adv-x="1312" d="M51 0v139h129l357 1397h241l350 -1397h134v-139h-400v139h111l-103 408h-430l-102 -408h113v-139h-400zM473 676h365l-183 721zM473 1909h145l220 -252h-150z" />
<glyph unicode="&#xc1;" horiz-adv-x="1312" d="M51 0v139h129l357 1397h241l350 -1397h134v-139h-400v139h111l-103 408h-430l-102 -408h113v-139h-400zM473 676h365l-183 721zM473 1657l219 252h146l-215 -252h-150z" />
<glyph unicode="&#xc2;" horiz-adv-x="1312" d="M51 0v139h129l357 1397h241l350 -1397h134v-139h-400v139h111l-103 408h-430l-102 -408h113v-139h-400zM362 1657l230 252h137l219 -252h-149l-142 164l-143 -164h-152zM473 676h365l-183 721z" />
<glyph unicode="&#xc3;" horiz-adv-x="1312" d="M51 0v139h129l357 1397h241l350 -1397h134v-139h-400v139h111l-103 408h-430l-102 -408h113v-139h-400zM317 1733q18 47 75 101t116 54t159.5 -56t120.5 -56q37 0 73 29.5t54 70.5l78 -57q-18 -49 -78.5 -103.5t-126.5 -54.5q-51 0 -143 55.5t-135 55.5 q-35 0 -57.5 -21.5t-51.5 -79.5zM473 676h365l-183 721z" />
<glyph unicode="&#xc4;" horiz-adv-x="1312" d="M51 0v139h129l357 1397h241l350 -1397h134v-139h-400v139h111l-103 408h-430l-102 -408h113v-139h-400zM416 1745q0 35 26.5 62.5t61.5 27.5q37 0 62.5 -26.5t25.5 -63.5q0 -39 -25.5 -64.5t-64.5 -25.5q-35 0 -60.5 26.5t-25.5 63.5zM473 676h365l-183 721zM719 1745 q0 35 26.5 62.5t61.5 27.5q37 0 62.5 -26.5t25.5 -63.5q0 -39 -25.5 -64.5t-64.5 -25.5q-35 0 -60.5 26.5t-25.5 63.5z" />
<glyph unicode="&#xc5;" horiz-adv-x="1312" d="M51 0v139h129l357 1397h241l350 -1397h134v-139h-400v139h111l-103 408h-430l-102 -408h113v-139h-400zM473 676h365l-183 721zM473 1788q0 76 54.5 129t129.5 53q74 0 127.5 -53t53.5 -129t-53.5 -129t-129 -53t-129 54t-53.5 128zM573 1790q0 -35 25 -59.5t57 -24.5 q35 0 59.5 24.5t24.5 57.5q0 35 -24.5 59.5t-57.5 24.5q-35 0 -59.5 -23.5t-24.5 -58.5z" />
<glyph unicode="&#xc6;" horiz-adv-x="1753" d="M90 0v139h119l446 1258h-161v139h1101v-379h-139v240h-366v-537h344v-137h-344v-582l366 -2v240h139v-379h-802v143h129v580h-353l-204 -584h122v-139h-397zM618 860h304v537h-113z" />
<glyph unicode="&#xc7;" horiz-adv-x="1075" d="M123 219v1096q0 92 47 156.5t154 64.5h649v-379h-139v240h-543v-1258h543v240h139v-379h-490v-86h76q152 0 152 -143v-76q0 -139 -140 -139h-209v108h222v137h-222v199h-18q-221 0 -221 219z" />
<glyph unicode="&#xc8;" horiz-adv-x="1196" d="M133 0v139h129v1258h-129v139h961v-379h-140v240h-524v-533h289v146h139v-430h-139v145h-289v-586h524v240h140v-379h-961zM416 1909h145l219 -252h-149z" />
<glyph unicode="&#xc9;" horiz-adv-x="1196" d="M133 0v139h129v1258h-129v139h961v-379h-140v240h-524v-533h289v146h139v-430h-139v145h-289v-586h524v240h140v-379h-961zM416 1657l219 252h145l-215 -252h-149z" />
<glyph unicode="&#xca;" horiz-adv-x="1196" d="M133 0v139h129v1258h-129v139h961v-379h-140v240h-524v-533h289v146h139v-430h-139v145h-289v-586h524v240h140v-379h-961zM305 1657l230 252h137l219 -252h-150l-141 164l-143 -164h-152z" />
<glyph unicode="&#xcb;" horiz-adv-x="1196" d="M133 0v139h129v1258h-129v139h961v-379h-140v240h-524v-533h289v146h139v-430h-139v145h-289v-586h524v240h140v-379h-961zM358 1745q0 35 27 62.5t61 27.5q37 0 63 -26.5t26 -63.5q0 -39 -26 -64.5t-65 -25.5q-35 0 -60.5 26.5t-25.5 63.5zM662 1745q0 35 26.5 62.5 t61.5 27.5q37 0 62.5 -26.5t25.5 -63.5q0 -39 -26 -64.5t-64 -25.5q-35 0 -60.5 26.5t-25.5 63.5z" />
<glyph unicode="&#xcc;" horiz-adv-x="757" d="M164 0v139h129v1258h-129v139h430v-139h-133v-1258h133v-139h-430zM197 1909h145l219 -252h-149z" />
<glyph unicode="&#xcd;" horiz-adv-x="757" d="M164 0v139h129v1258h-129v139h430v-139h-133v-1258h133v-139h-430zM197 1657l219 252h145l-215 -252h-149z" />
<glyph unicode="&#xce;" horiz-adv-x="757" d="M86 1657l229 252h138l219 -252h-150l-141 164l-143 -164h-152zM164 0v139h129v1258h-129v139h430v-139h-133v-1258h133v-139h-430z" />
<glyph unicode="&#xcf;" horiz-adv-x="757" d="M139 1745q0 35 27 62.5t61 27.5q37 0 62.5 -26.5t25.5 -63.5q0 -39 -25.5 -64.5t-64.5 -25.5q-35 0 -60.5 26.5t-25.5 63.5zM164 0v139h129v1258h-129v139h430v-139h-133v-1258h133v-139h-430zM442 1745q0 35 27 62.5t61 27.5q37 0 62.5 -26.5t25.5 -63.5 q0 -39 -25.5 -64.5t-64.5 -25.5q-35 0 -60.5 26.5t-25.5 63.5z" />
<glyph unicode="&#xd0;" horiz-adv-x="1236" d="M115 727v135h137v535h-129v139h723q147 0 207.5 -64.5t60.5 -203.5v-1000q0 -139 -65.5 -203.5t-202.5 -64.5h-723v139h129v588h-137zM420 139h526v1258h-526v-535h291v-135h-291v-588z" />
<glyph unicode="&#xd1;" horiz-adv-x="1472" d="M133 0v139h129v1258h-129v139h316l593 -1221v1082h-133v139h430v-139h-129v-1397h-200l-580 1196v-1057h133v-139h-430zM397 1733q18 47 74.5 101t116 54t160 -56t120.5 -56q37 0 73 29.5t54 70.5l78 -57q-18 -49 -78.5 -103.5t-126.5 -54.5q-51 0 -143 55.5t-135 55.5 q-35 0 -57.5 -21.5t-51.5 -79.5z" />
<glyph unicode="&#xd2;" d="M123 248v1016q0 139 48 205.5t179 66.5h400q238 0 237 -272v-985q0 -150 -50 -214.5t-177 -64.5h-393q-133 0 -188.5 63.5t-55.5 184.5zM287 139h536v1258h-536v-1258zM373 1909h145l219 -252h-149z" />
<glyph unicode="&#xd3;" d="M123 248v1016q0 139 48 205.5t179 66.5h400q238 0 237 -272v-985q0 -150 -50 -214.5t-177 -64.5h-393q-133 0 -188.5 63.5t-55.5 184.5zM287 139h536v1258h-536v-1258zM373 1657l219 252h145l-215 -252h-149z" />
<glyph unicode="&#xd4;" d="M123 248v1016q0 139 48 205.5t179 66.5h400q238 0 237 -272v-985q0 -150 -50 -214.5t-177 -64.5h-393q-133 0 -188.5 63.5t-55.5 184.5zM262 1657l230 252h137l219 -252h-150l-141 164l-143 -164h-152zM287 139h536v1258h-536v-1258z" />
<glyph unicode="&#xd5;" d="M123 248v1016q0 139 48 205.5t179 66.5h400q238 0 237 -272v-985q0 -150 -50 -214.5t-177 -64.5h-393q-133 0 -188.5 63.5t-55.5 184.5zM217 1733q18 47 74.5 101t116 54t160 -56t120.5 -56q37 0 73 29.5t54 70.5l78 -57q-18 -49 -78.5 -103.5t-126.5 -54.5 q-51 0 -143 55.5t-135 55.5q-35 0 -57.5 -21.5t-51.5 -79.5zM287 139h536v1258h-536v-1258z" />
<glyph unicode="&#xd6;" d="M123 248v1016q0 139 48 205.5t179 66.5h400q238 0 237 -272v-985q0 -150 -50 -214.5t-177 -64.5h-393q-133 0 -188.5 63.5t-55.5 184.5zM287 139h536v1258h-536v-1258zM315 1745q0 35 27 62.5t61 27.5q37 0 63 -26.5t26 -63.5q0 -39 -26 -64.5t-65 -25.5 q-35 0 -60.5 26.5t-25.5 63.5zM618 1745q0 35 27 62.5t62 27.5q37 0 62.5 -26.5t25.5 -63.5q0 -39 -26 -64.5t-64 -25.5q-35 0 -61 26.5t-26 63.5z" />
<glyph unicode="&#xd7;" horiz-adv-x="763" d="M10 524l273 273l-271 270l94 96l273 -270l272 274l103 -102l-275 -274l271 -271l-95 -94l-272 270l-272 -272z" />
<glyph unicode="&#xd8;" d="M123 248v1016q0 139 48 205.5t179 66.5h352l39 137h138l-43 -149q152 -41 151 -260v-985q0 -150 -50 -214.5t-177 -64.5h-357l-43 -156h-139l47 166q-145 41 -145 238zM287 139h18l357 1258h-375v-1258zM444 139h379v1258h-22z" />
<glyph unicode="&#xd9;" horiz-adv-x="1396" d="M123 1397v139h430v-139h-133v-1258h557v1258h-133v139h430v-139h-129v-1184q0 -213 -184 -213h-527q-182 0 -182 203v1194h-129zM516 1909h146l219 -252h-150z" />
<glyph unicode="&#xda;" horiz-adv-x="1396" d="M123 1397v139h430v-139h-133v-1258h557v1258h-133v139h430v-139h-129v-1184q0 -213 -184 -213h-527q-182 0 -182 203v1194h-129zM516 1657l219 252h146l-215 -252h-150z" />
<glyph unicode="&#xdb;" horiz-adv-x="1396" d="M123 1397v139h430v-139h-133v-1258h557v1258h-133v139h430v-139h-129v-1184q0 -213 -184 -213h-527q-182 0 -182 203v1194h-129zM406 1657l229 252h137l219 -252h-149l-142 164l-143 -164h-151z" />
<glyph unicode="&#xdc;" horiz-adv-x="1396" d="M123 1397v139h430v-139h-133v-1258h557v1258h-133v139h430v-139h-129v-1184q0 -213 -184 -213h-527q-182 0 -182 203v1194h-129zM459 1745q0 35 26.5 62.5t61.5 27.5q37 0 62.5 -26.5t25.5 -63.5q0 -39 -25.5 -64.5t-64.5 -25.5q-35 0 -60.5 26.5t-25.5 63.5zM762 1745 q0 35 26.5 62.5t61.5 27.5q37 0 62.5 -26.5t25.5 -63.5q0 -39 -25.5 -64.5t-64.5 -25.5q-35 0 -60.5 26.5t-25.5 63.5z" />
<glyph unicode="&#xdd;" horiz-adv-x="1138" d="M51 1397v139h332v-139h-74l260 -500l267 500h-74v139h325v-139h-77l-359 -641v-617h133v-139h-430v139h129v617l-340 641h-92zM387 1657l219 252h146l-215 -252h-150z" />
<glyph unicode="&#xde;" horiz-adv-x="1216" d="M133 0v139h129v1256h-129v141h430v-141h-131v-127h432q135 0 182.5 -51.5t47.5 -202.5v-150q0 -33 -4.5 -58.5t-7.5 -44t-17 -36.5t-19.5 -28.5t-31 -29t-33.5 -23.5t-46 -28.5t-52 -31.5l-453 -283v-162h133v-139h-430zM430 465l514 317v344h-514v-661z" />
<glyph unicode="&#xdf;" horiz-adv-x="1124" d="M102 0v139h164v1184q0 113 44 163t139 50h280q119 0 175.5 -67.5t56.5 -176.5v-264q0 -76 -36 -131t-83 -59q57 -8 108 -65.5t51 -149.5v-349q0 -274 -288 -274h-148v139h269v615h-269v153h238v490h-377v-1397h-324z" />
<glyph unicode="&#xe0;" horiz-adv-x="1009" d="M41 180v76q0 74 23.5 106.5t115.5 90.5l451 280v152h-402v-119h-131v258h512q100 0 144.5 -44t44.5 -132v-709h129v-139h-713q-104 0 -139 39t-35 141zM205 139h426v430l-426 -266v-164zM322 1397h145l219 -252h-149z" />
<glyph unicode="&#xe1;" horiz-adv-x="1009" d="M41 180v76q0 74 23.5 106.5t115.5 90.5l451 280v152h-402v-119h-131v258h512q100 0 144.5 -44t44.5 -132v-709h129v-139h-713q-104 0 -139 39t-35 141zM205 139h426v430l-426 -266v-164zM322 1145l219 252h145l-215 -252h-149z" />
<glyph unicode="&#xe2;" horiz-adv-x="1009" d="M41 180v76q0 74 23.5 106.5t115.5 90.5l451 280v152h-402v-119h-131v258h512q100 0 144.5 -44t44.5 -132v-709h129v-139h-713q-104 0 -139 39t-35 141zM131 1145l229 252h138l219 -252h-150l-141 164l-143 -164h-152zM205 139h426v430l-426 -266v-164z" />
<glyph unicode="&#xe3;" horiz-adv-x="1009" d="M41 180v76q0 74 23.5 106.5t115.5 90.5l451 280v152h-402v-119h-131v258h512q100 0 144.5 -44t44.5 -132v-709h129v-139h-713q-104 0 -139 39t-35 141zM92 1221q18 47 74.5 101t116 54t160 -56t120.5 -56q37 0 73 29.5t54 70.5l78 -57q-18 -49 -78.5 -103.5t-126.5 -54.5 q-51 0 -143 55.5t-135 55.5q-35 0 -57.5 -21.5t-51.5 -79.5zM205 139h426v430l-426 -266v-164z" />
<glyph unicode="&#xe4;" horiz-adv-x="1009" d="M41 180v76q0 74 23.5 106.5t115.5 90.5l451 280v152h-402v-119h-131v258h512q100 0 144.5 -44t44.5 -132v-709h129v-139h-713q-104 0 -139 39t-35 141zM176 1233q0 35 26.5 62.5t61.5 27.5q37 0 62.5 -26.5t25.5 -63.5q0 -39 -25.5 -64.5t-64.5 -25.5q-35 0 -60.5 26.5 t-25.5 63.5zM205 139h426v430l-426 -266v-164zM479 1233q0 35 26.5 62.5t61.5 27.5q37 0 62.5 -26.5t25.5 -63.5q0 -39 -25.5 -64.5t-64.5 -25.5q-35 0 -60.5 26.5t-25.5 63.5z" />
<glyph unicode="&#xe5;" horiz-adv-x="1009" d="M41 180v76q0 74 23.5 106.5t115.5 90.5l451 280v152h-402v-119h-131v258h512q100 0 144.5 -44t44.5 -132v-709h129v-139h-713q-104 0 -139 39t-35 141zM205 139h426v430l-426 -266v-164zM240 1276q0 76 54 129t130 53q74 0 127 -53t53 -129t-53 -129t-129 -53t-129 54 t-53 128zM340 1278q0 -35 24.5 -59.5t57.5 -24.5q35 0 59.5 24.5t24.5 57.5q0 35 -24.5 59.5t-57.5 24.5q-35 0 -59.5 -23.5t-24.5 -58.5z" />
<glyph unicode="&#xe6;" horiz-adv-x="1454" d="M102 180v72q0 76 24 110.5t116 90.5l409 241v191h-360v-119h-131v258h1001q102 0 146.5 -40t44.5 -140v-191l-541 -336v-178h379v119h162v-108q0 -66 -41 -108t-123 -42h-912q-104 0 -139 39t-35 141zM266 139h385v391l-385 -227v-164zM811 483l377 232v170h-377v-402z " />
<glyph unicode="&#xe7;" horiz-adv-x="872" d="M102 180v664q0 182 195 182h494v-260h-140v119h-385v-746h385v119h140v-258h-408v-86h76q152 0 151 -143v-76q0 -139 -139 -139h-209v108h221v137h-221v199q-160 8 -160 180z" />
<glyph unicode="&#xe8;" horiz-adv-x="952" d="M102 150v673q0 203 211 203h346q102 0 146.5 -41t44.5 -141v-191l-584 -368v-146h422v119h162v-108q0 -66 -41 -108t-123 -42h-420q-82 0 -123 42t-41 108zM266 451l420 264v170h-420v-434zM293 1397h145l219 -252h-149z" />
<glyph unicode="&#xe9;" horiz-adv-x="952" d="M102 150v673q0 203 211 203h346q102 0 146.5 -41t44.5 -141v-191l-584 -368v-146h422v119h162v-108q0 -66 -41 -108t-123 -42h-420q-82 0 -123 42t-41 108zM266 451l420 264v170h-420v-434zM293 1145l219 252h145l-215 -252h-149z" />
<glyph unicode="&#xea;" horiz-adv-x="952" d="M102 150v673q0 203 211 203h346q102 0 146.5 -41t44.5 -141v-191l-584 -368v-146h422v119h162v-108q0 -66 -41 -108t-123 -42h-420q-82 0 -123 42t-41 108zM182 1145l230 252h137l219 -252h-150l-141 164l-143 -164h-152zM266 451l420 264v170h-420v-434z" />
<glyph unicode="&#xeb;" horiz-adv-x="952" d="M102 150v673q0 203 211 203h346q102 0 146.5 -41t44.5 -141v-191l-584 -368v-146h422v119h162v-108q0 -66 -41 -108t-123 -42h-420q-82 0 -123 42t-41 108zM236 1233q0 35 26.5 62.5t61.5 27.5q37 0 62.5 -26.5t25.5 -63.5q0 -39 -26 -64.5t-64 -25.5q-35 0 -60.5 26.5 t-25.5 63.5zM266 451l420 264v170h-420v-434zM539 1233q0 35 26.5 62.5t61.5 27.5q37 0 62.5 -26.5t25.5 -63.5q0 -39 -25.5 -64.5t-64.5 -25.5q-35 0 -60.5 26.5t-25.5 63.5z" />
<glyph unicode="&#xec;" horiz-adv-x="614" d="M102 0v139h129v746h-129v139h297v-885h133v-139h-430zM125 1397h145l219 -252h-149z" />
<glyph unicode="&#xed;" horiz-adv-x="614" d="M102 0v139h129v746h-129v139h297v-885h133v-139h-430zM125 1145l219 252h145l-215 -252h-149z" />
<glyph unicode="&#xee;" horiz-adv-x="630" d="M-2 1145l229 252h138l219 -252h-150l-141 164l-143 -164h-152zM119 0v139h129v746h-129v139h297v-885h133v-139h-430z" />
<glyph unicode="&#xef;" horiz-adv-x="614" d="M68 1233q0 35 26.5 62.5t61.5 27.5q37 0 62.5 -26.5t25.5 -63.5q0 -39 -25.5 -64.5t-64.5 -25.5q-35 0 -60.5 26.5t-25.5 63.5zM102 0v139h129v746h-129v139h297v-885h133v-139h-430zM371 1233q0 35 26.5 62.5t61.5 27.5q37 0 62.5 -26.5t25.5 -63.5q0 -39 -25.5 -64.5 t-64.5 -25.5q-35 0 -60.5 26.5t-25.5 63.5z" />
<glyph unicode="&#xf0;" horiz-adv-x="942" d="M68 1014l233 192l-225 92v140l346 -131l219 180h178l-276 -225l133 -50q100 -37 138 -93t38 -138v-801q0 -88 -41 -133t-145 -45h-377q-111 0 -149 44t-38 134v223q0 80 43 135.5t144 112.5l413 264v52q0 88 -84 114l-200 78l-180 -145h-170zM254 137h448v613l-448 -281 v-332z" />
<glyph unicode="&#xf1;" horiz-adv-x="1163" d="M82 0v139h129v748h-129v137h295v-213l340 213q33 20 74 20q160 0 159 -157v-748h131v-139h-395v139h98v762l-407 -256v-506h100v-139h-395zM244 1221q18 47 74.5 101t116 54t159.5 -56t121 -56q37 0 73 29.5t54 70.5l78 -57q-18 -49 -79 -103.5t-126 -54.5 q-51 0 -143.5 55.5t-135.5 55.5q-35 0 -57.5 -21.5t-50.5 -79.5z" />
<glyph unicode="&#xf2;" horiz-adv-x="923" d="M82 182v660q0 90 41 136t149 46h379q106 0 148.5 -47t42.5 -135v-660q-1 -182 -191 -182h-379q-190 0 -190 182zM248 139h428v746h-428v-746zM279 1397h145l219 -252h-149z" />
<glyph unicode="&#xf3;" horiz-adv-x="923" d="M82 182v660q0 90 41 136t149 46h379q106 0 148.5 -47t42.5 -135v-660q-1 -182 -191 -182h-379q-190 0 -190 182zM248 139h428v746h-428v-746zM279 1145l219 252h145l-215 -252h-149z" />
<glyph unicode="&#xf4;" horiz-adv-x="923" d="M82 182v660q0 90 41 136t149 46h379q106 0 148.5 -47t42.5 -135v-660q-1 -182 -191 -182h-379q-190 0 -190 182zM168 1145l229 252h138l219 -252h-150l-141 164l-144 -164h-151zM248 139h428v746h-428v-746z" />
<glyph unicode="&#xf5;" horiz-adv-x="923" d="M82 182v660q0 90 41 136t149 46h379q106 0 148.5 -47t42.5 -135v-660q-1 -182 -191 -182h-379q-190 0 -190 182zM123 1221q18 47 74.5 101t116 54t159.5 -56t121 -56q37 0 73 29.5t54 70.5l78 -57q-18 -49 -79 -103.5t-126 -54.5q-51 0 -143.5 55.5t-135.5 55.5 q-35 0 -57 -21.5t-51 -79.5zM248 139h428v746h-428v-746z" />
<glyph unicode="&#xf6;" horiz-adv-x="923" d="M82 182v660q0 90 41 136t149 46h379q106 0 148.5 -47t42.5 -135v-660q-1 -182 -191 -182h-379q-190 0 -190 182zM221 1233q0 35 26.5 62.5t61.5 27.5q37 0 62.5 -26.5t25.5 -63.5q0 -39 -25.5 -64.5t-64.5 -25.5q-35 0 -60.5 26.5t-25.5 63.5zM248 139h428v746h-428v-746 zM524 1233q0 35 27 62.5t61 27.5q37 0 62.5 -26.5t25.5 -63.5q0 -39 -25.5 -64.5t-64.5 -25.5q-35 0 -60.5 26.5t-25.5 63.5z" />
<glyph unicode="&#xf7;" horiz-adv-x="741" d="M31 725v135h674v-135h-674zM262 524q0 41 32 74t73 33q43 0 72.5 -32t29.5 -75q0 -45 -29.5 -74.5t-74.5 -29.5q-41 0 -72 30.5t-31 73.5zM262 1069q0 43 32 75t73 32q43 0 72.5 -32t29.5 -75q0 -45 -29.5 -75.5t-74.5 -30.5q-41 0 -72 30.5t-31 75.5z" />
<glyph unicode="&#xf8;" horiz-adv-x="923" d="M82 182v660q0 90 41 136t149 46h279l39 129h145l-39 -131q145 -18 146 -180v-660q0 -182 -191 -182h-262l-51 -174h-145l51 174q-162 14 -162 182zM248 139h37l223 746h-260v-746zM432 139h244v746h-21z" />
<glyph unicode="&#xf9;" horiz-adv-x="1163" d="M82 887v139h297v-887l407 256v492h-100v139h266v-887h129v-139h-295v229l-340 -213q-33 -20 -73 -20q-160 0 -160 158v733h-131zM399 1397h146l219 -252h-150z" />
<glyph unicode="&#xfa;" horiz-adv-x="1163" d="M82 887v139h297v-887l407 256v492h-100v139h266v-887h129v-139h-295v229l-340 -213q-33 -20 -73 -20q-160 0 -160 158v733h-131zM399 1145l219 252h146l-215 -252h-150z" />
<glyph unicode="&#xfb;" horiz-adv-x="1163" d="M82 887v139h297v-887l407 256v492h-100v139h266v-887h129v-139h-295v229l-340 -213q-33 -20 -73 -20q-160 0 -160 158v733h-131zM289 1145l229 252h137l219 -252h-149l-141 164l-144 -164h-151z" />
<glyph unicode="&#xfc;" horiz-adv-x="1163" d="M82 887v139h297v-887l407 256v492h-100v139h266v-887h129v-139h-295v229l-340 -213q-33 -20 -73 -20q-160 0 -160 158v733h-131zM342 1233q0 35 26.5 62.5t61.5 27.5q37 0 62.5 -26.5t25.5 -63.5q0 -39 -25.5 -64.5t-64.5 -25.5q-35 0 -60.5 26.5t-25.5 63.5zM645 1233 q0 35 26.5 62.5t61.5 27.5q37 0 62.5 -26.5t25.5 -63.5q0 -39 -25.5 -64.5t-64.5 -25.5q-35 0 -60.5 26.5t-25.5 63.5z" />
<glyph unicode="&#xfd;" horiz-adv-x="1054" d="M82 885v139h297v-883l407 256v488h-100v139h266v-1296q0 -88 -44 -132.5t-144 -44.5h-473v279h139v-137h354v538l-360 -223q-47 -29 -94 -28q-51 0 -84 33.5t-33 99.5v772h-131zM344 1145l219 252h146l-215 -252h-150z" />
<glyph unicode="&#xfe;" horiz-adv-x="1079" d="M82 1395v141h297v-745l354 223q49 31 103 30q59 0 100 -35.5t41 -97.5v-718q0 -94 -39 -143.5t-145 -49.5h-414v-373h135v-139h-430v139h127v1768h-129zM379 139h434v760l-434 -272v-488z" />
<glyph unicode="&#xff;" horiz-adv-x="1054" d="M82 885v139h297v-883l407 256v488h-100v139h266v-1296q0 -88 -44 -132.5t-144 -44.5h-473v279h139v-137h354v538l-360 -223q-47 -29 -94 -28q-51 0 -84 33.5t-33 99.5v772h-131zM287 1233q0 35 26.5 62.5t61.5 27.5q37 0 62.5 -26.5t25.5 -63.5q0 -39 -25.5 -64.5 t-64.5 -25.5q-35 0 -60.5 26.5t-25.5 63.5zM590 1233q0 35 26.5 62.5t61.5 27.5q37 0 62.5 -26.5t25.5 -63.5q0 -39 -25.5 -64.5t-64.5 -25.5q-35 0 -60.5 26.5t-25.5 63.5z" />
<glyph unicode="&#x152;" horiz-adv-x="1677" d="M123 248v1016q0 139 48 205.5t179 66.5h1204v-379h-139v240h-477v-545l352 223v-166l-352 -219v-551h477v240h139v-379h-1187q-133 0 -188.5 63.5t-55.5 184.5zM287 139h483v445l-129 -82v166l129 82v647h-483v-1258z" />
<glyph unicode="&#x153;" horiz-adv-x="1523" d="M123 182v660q0 90 41 136t149 46h897q102 0 146.5 -40t44.5 -140v-191l-561 -368v-146h399v119h162v-108q0 -66 -41 -108t-123 -42h-924q-190 0 -190 182zM289 139h387v746h-387v-746zM840 885l2 -434l395 264v170h-397z" />
<glyph unicode="&#x178;" horiz-adv-x="1138" d="M51 1397v139h332v-139h-74l260 -500l267 500h-74v139h325v-139h-77l-359 -641v-617h133v-139h-430v139h129v617l-340 641h-92zM330 1745q0 35 26.5 62.5t61.5 27.5q37 0 62.5 -26.5t25.5 -63.5q0 -39 -25.5 -64.5t-64.5 -25.5q-35 0 -60.5 26.5t-25.5 63.5zM633 1745 q0 35 26.5 62.5t61.5 27.5q37 0 62.5 -26.5t25.5 -63.5q0 -39 -25.5 -64.5t-64.5 -25.5q-35 0 -60.5 26.5t-25.5 63.5z" />
<glyph unicode="&#x2c6;" horiz-adv-x="598" d="M6 1145l230 252h137l219 -252h-150l-141 164l-143 -164h-152z" />
<glyph unicode="&#x2dc;" horiz-adv-x="686" d="M6 1221q18 47 74.5 101t116 54t160 -56t120.5 -56q37 0 73 29.5t54 70.5l78 -57q-18 -49 -78.5 -103.5t-126.5 -54.5q-51 0 -143 55.5t-135 55.5q-35 0 -57.5 -21.5t-51.5 -79.5z" />
<glyph unicode="&#x2000;" horiz-adv-x="985" />
<glyph unicode="&#x2001;" horiz-adv-x="1970" />
<glyph unicode="&#x2002;" horiz-adv-x="985" />
<glyph unicode="&#x2003;" horiz-adv-x="1970" />
<glyph unicode="&#x2004;" horiz-adv-x="656" />
<glyph unicode="&#x2005;" horiz-adv-x="492" />
<glyph unicode="&#x2006;" horiz-adv-x="328" />
<glyph unicode="&#x2007;" horiz-adv-x="328" />
<glyph unicode="&#x2008;" horiz-adv-x="246" />
<glyph unicode="&#x2009;" horiz-adv-x="394" />
<glyph unicode="&#x200a;" horiz-adv-x="109" />
<glyph unicode="&#x2010;" horiz-adv-x="923" d="M164 725v135h596v-135h-596z" />
<glyph unicode="&#x2011;" horiz-adv-x="923" d="M164 725v135h596v-135h-596z" />
<glyph unicode="&#x2012;" horiz-adv-x="923" d="M164 725v135h596v-135h-596z" />
<glyph unicode="&#x2013;" horiz-adv-x="1236" d="M164 725v135h909v-135h-909z" />
<glyph unicode="&#x2014;" horiz-adv-x="1499" d="M164 725v135h1190v-135h-1190z" />
<glyph unicode="&#x2018;" horiz-adv-x="362" d="M4 1044l154 492h151l-155 -492h-150z" />
<glyph unicode="&#x2019;" horiz-adv-x="362" d="M4 1044l154 492h151l-155 -492h-150z" />
<glyph unicode="&#x201a;" horiz-adv-x="387" d="M20 -305l154 491h152l-156 -491h-150z" />
<glyph unicode="&#x201c;" horiz-adv-x="702" d="M4 1044l154 492h151l-155 -492h-150zM367 1044l153 492h152l-156 -492h-149z" />
<glyph unicode="&#x201d;" horiz-adv-x="702" d="M4 1044l154 492h151l-155 -492h-150zM367 1044l153 492h152l-156 -492h-149z" />
<glyph unicode="&#x201e;" horiz-adv-x="749" d="M20 -307l154 491h152l-156 -491h-150zM383 -307l154 491h151l-156 -491h-149z" />
<glyph unicode="&#x2022;" horiz-adv-x="847" d="M178 782q0 109 77 184.5t187 77.5q106 0 182 -76.5t76 -185.5q-2 -111 -76.5 -188.5t-181.5 -77.5q-109 0 -185.5 77.5t-78.5 188.5z" />
<glyph unicode="&#x2026;" horiz-adv-x="1247" d="M82 96q0 41 31.5 74t72.5 33q43 0 73 -32t30 -75q0 -45 -30 -74.5t-75 -29.5q-41 0 -71.5 30.5t-30.5 73.5zM520 96q0 41 32 74t73 33q43 0 72.5 -32t29.5 -75q0 -45 -29.5 -74.5t-74.5 -29.5q-41 0 -72 30.5t-31 73.5zM958 96q0 41 32 74t73 33q43 0 72.5 -32t29.5 -75 q0 -45 -29.5 -74.5t-74.5 -29.5q-41 0 -72 30.5t-31 73.5z" />
<glyph unicode="&#x202f;" horiz-adv-x="394" />
<glyph unicode="&#x2039;" horiz-adv-x="514" d="M61 553l316 434l117 -82l-261 -352l261 -320l-113 -83z" />
<glyph unicode="&#x203a;" horiz-adv-x="514" d="M20 231l261 353l-261 319l113 84l320 -403l-316 -434z" />
<glyph unicode="&#x205f;" horiz-adv-x="492" />
<glyph unicode="&#x20ac;" horiz-adv-x="1157" d="M82 532v138h123v219h-123v137h123v289q0 92 47 156.5t154 64.5h649v-276h-140v137h-542v-371h508v-137h-508v-219h508v-138h-508v-393h542v131h140v-270h-629q-221 0 -221 219v313h-123z" />
<glyph unicode="&#x2122;" horiz-adv-x="1552" d="M41 1296v240h549v-240h-111v125h-100v-450h104v-111h-336v111h105v450h-96v-125h-115zM659 860v111h89v454h-89v111h256l170 -336l170 336h256v-111h-86v-454h86v-111h-299v111h91v413l-179 -360h-82l-176 356v-409h92v-111h-299z" />
<glyph unicode="&#xe000;" horiz-adv-x="1025" d="M0 1025h1025v-1025h-1025v1025z" />
<glyph unicode="&#xfb01;" horiz-adv-x="1293" d="M781 0v139h129v746h-129v139h297v-885h133v-139h-430zM890 1296q0 41 30.5 73t71.5 32q43 0 74 -31t31 -74q0 -47 -31 -76.5t-76 -29.5q-41 0 -70.5 30.5t-29.5 75.5zM82 0v139h164v738h-164v147h164v299q0 113 44 163t138 50h170v-139h-192v-373h165v-147h-165v-738h165 v-139h-489z" />
<glyph unicode="&#xfb02;" horiz-adv-x="1313" d="M781 0v139h129v1258h-129v139h297v-1397h133v-139h-430zM82 0v139h164v738h-164v147h164v299q0 113 44 163t138 50h170v-139h-192v-373h165v-147h-165v-738h165v-139h-489z" />
<glyph unicode="&#xfb03;" horiz-adv-x="1972" d="M1460 0v139h129v746h-129v139h297v-885h133v-139h-430zM1569 1296q0 41 30.5 73t71.5 32q43 0 74 -31t31 -74q0 -47 -31 -76.5t-76 -29.5q-41 0 -70.5 30.5t-29.5 75.5zM761 0v139h164v738h-164v147h164v299q0 113 44 163t138 50h170v-139h-192v-373h165v-147h-165v-738 h165v-139h-489zM82 0v139h164v738h-164v147h164v299q0 113 44 163t138 50h170v-139h-192v-373h165v-147h-165v-738h165v-139h-489z" />
<glyph unicode="&#xfb04;" horiz-adv-x="1992" d="M1460 0v139h129v1258h-129v139h297v-1397h133v-139h-430zM761 0v139h164v738h-164v147h164v299q0 113 44 163t138 50h170v-139h-192v-373h165v-147h-165v-738h165v-139h-489zM82 0v139h164v738h-164v147h164v299q0 113 44 163t138 50h170v-139h-192v-373h165v-147h-165 v-738h165v-139h-489z" />
</font>
</defs>
</svg>
